<svg viewBox="0 0 720 720" xmlns="http://www.w3.org/2000/svg"><path clip-rule="evenodd" d="m42.6667 0c-23.5642 0-42.6667 19.1025-42.6667 42.6667v634.6663c0 23.564 19.1025 42.667 42.6667 42.667h634.6663c23.564 0 42.667-19.103 42.667-42.667v-634.6663c0-23.5642-19.103-42.6667-42.667-42.6667zm160.5893 439h-116.2843v-27.307l57.2983-50.165c12.886-11.582 20.25-19.559 20.25-31.295 0-12.963-9.281-20.864-22.091-20.864-13.04 0-21.784 8.208-21.784 22.398h-35.9745c-.0767-31.986 23.1645-52.006 57.9115-52.006 35.668 0 58.756 19.177 58.756 47.48 0 18.026-8.898 33.137-42.954 62.821l-18.793 17.336v.997h63.665zm147.669-78.315c-.077 51.852-25.313 82.227-66.426 82.15-41.114 0-66.503-30.451-66.35-82.15.077-51.623 25.236-80.924 66.35-80.924 41.113 0 66.502 29.378 66.426 80.924zm-93.733 0c-.154 34.67 10.969 51.085 27.307 51.085 16.414 0 27.46-16.415 27.383-51.085-.077-33.98-11.045-50.088-27.383-50.088-16.262 0-27.231 16.108-27.307 50.088zm184.238 52.235h-75.861v-29.608l64.355-101.403h47.787v101.097h18.793v29.914h-18.793v26.08h-36.281zm-38.123-29.914h38.89v-60.904h-1.228l-37.662 59.676zm232.716 13.5c0 25.542-26.694 44.642-63.435 44.642-36.742 0-63.435-19.1-63.435-44.642 0-19.483 15.418-35.284 35.284-38.353v-1.227c-17.335-3.221-29.454-17.335-29.454-34.67 0-24.546 24.392-42.495 57.605-42.495s57.605 18.026 57.605 42.495c0 17.335-12.426 31.449-29.454 34.67v1.227c19.559 3.069 35.284 18.87 35.284 38.353zm-87.06-3.068c0 12.042 9.665 20.786 23.625 20.786 13.883 0 23.625-8.667 23.625-20.786 0-12.197-9.972-21.094-23.625-21.094s-23.625 8.821-23.625 21.094zm3.068-67.04c0 11.122 8.591 19.176 20.557 19.176 11.889 0 20.557-7.977 20.557-19.176 0-10.969-8.514-18.793-20.557-18.793s-20.557 7.747-20.557 18.793z" fill="#f0c105" fill-rule="evenodd"/></svg>
